<svg width="16" height="16" viewBox="0 0 16 16" fill="none" xmlns="http://www.w3.org/2000/svg">
<path d="M7.17926 1.33413C7.32893 0.873476 7.98064 0.873475 8.13031 1.33413L9.56315 5.74396C9.63009 5.94997 9.82207 6.08945 10.0387 6.08945H14.6755C15.1598 6.08945 15.3612 6.70926 14.9693 6.99396L11.2181 9.71939C11.0429 9.84671 10.9695 10.0724 11.0365 10.2784L12.4693 14.6882C12.619 15.1489 12.0918 15.532 11.6999 15.2472L7.94868 12.5218C7.77343 12.3945 7.53614 12.3945 7.36089 12.5218L3.60967 15.2472C3.21781 15.5319 2.69057 15.1489 2.84025 14.6882L4.27309 10.2784C4.34002 10.0724 4.26669 9.84671 4.09145 9.71939L0.340226 6.99396C-0.0516305 6.70926 0.149757 6.08945 0.634119 6.08945H5.27089C5.4875 6.08945 5.67948 5.94997 5.74642 5.74396L7.17926 1.33413Z" fill="#772C5A"/>
</svg>
